<svg width="274" height="72" viewBox="0 0 274 72" fill="none" xmlns="http://www.w3.org/2000/svg">
<g filter="url(#filter0_d_273_29)">
<rect x="4" width="266" height="64" rx="32" fill="white"/>
<rect x="5.5" y="1.5" width="263" height="61" rx="30.5" stroke="#FFEE55" stroke-width="3"/>
<path d="M57.328 38V26.8H62.8C64.208 26.8 65.264 27.0667 65.968 27.6C66.6827 28.1333 67.04 28.8373 67.04 29.712C67.04 30.2987 66.896 30.8107 66.608 31.248C66.32 31.6747 65.9253 32.0053 65.424 32.24C64.9227 32.4747 64.3467 32.592 63.696 32.592L64 31.936C64.704 31.936 65.328 32.0533 65.872 32.288C66.416 32.512 66.8373 32.848 67.136 33.296C67.4453 33.744 67.6 34.2933 67.6 34.944C67.6 35.904 67.2213 36.656 66.464 37.2C65.7067 37.7333 64.592 38 63.12 38H57.328ZM59.904 36.048H62.928C63.6 36.048 64.1067 35.9413 64.448 35.728C64.8 35.504 64.976 35.152 64.976 34.672C64.976 34.2027 64.8 33.856 64.448 33.632C64.1067 33.3973 63.6 33.28 62.928 33.28H59.712V31.392H62.48C63.1093 31.392 63.5893 31.2853 63.92 31.072C64.2613 30.848 64.432 30.512 64.432 30.064C64.432 29.6267 64.2613 29.3013 63.92 29.088C63.5893 28.864 63.1093 28.752 62.48 28.752H59.904V36.048ZM74.0184 38.128C73.3037 38.128 72.6637 37.9893 72.0984 37.712C71.5437 37.4347 71.1117 37.0133 70.8024 36.448C70.493 35.872 70.3384 35.1413 70.3384 34.256V29.392H72.8344V33.888C72.8344 34.6027 72.9837 35.1307 73.2824 35.472C73.5917 35.8027 74.0237 35.968 74.5784 35.968C74.9624 35.968 75.3037 35.888 75.6024 35.728C75.901 35.5573 76.1357 35.3013 76.3064 34.96C76.477 34.608 76.5624 34.1707 76.5624 33.648V29.392H79.0584V38H76.6904V35.632L77.1224 36.32C76.8344 36.9173 76.4077 37.3707 75.8424 37.68C75.2877 37.9787 74.6797 38.128 74.0184 38.128ZM85.2668 38.128C84.5308 38.128 83.8214 38.0427 83.1388 37.872C82.4668 37.6907 81.9334 37.4667 81.5388 37.2L82.3708 35.408C82.7654 35.6533 83.2294 35.856 83.7628 36.016C84.3068 36.1653 84.8401 36.24 85.3628 36.24C85.9388 36.24 86.3441 36.1707 86.5788 36.032C86.8241 35.8933 86.9468 35.7013 86.9468 35.456C86.9468 35.2533 86.8508 35.104 86.6588 35.008C86.4774 34.9013 86.2321 34.8213 85.9227 34.768C85.6134 34.7147 85.2721 34.6613 84.8988 34.608C84.5361 34.5547 84.1681 34.4853 83.7948 34.4C83.4214 34.304 83.0801 34.1653 82.7708 33.984C82.4614 33.8027 82.2108 33.5573 82.0188 33.248C81.8374 32.9387 81.7467 32.5387 81.7467 32.048C81.7467 31.504 81.9014 31.024 82.2108 30.608C82.5308 30.192 82.9894 29.8667 83.5868 29.632C84.1841 29.3867 84.8988 29.264 85.7308 29.264C86.3174 29.264 86.9148 29.328 87.5228 29.456C88.1308 29.584 88.6374 29.7707 89.0428 30.016L88.2108 31.792C87.7948 31.5467 87.3734 31.3813 86.9468 31.296C86.5308 31.2 86.1254 31.152 85.7308 31.152C85.1761 31.152 84.7708 31.2267 84.5148 31.376C84.2588 31.5253 84.1308 31.7173 84.1308 31.952C84.1308 32.1653 84.2214 32.3253 84.4028 32.432C84.5948 32.5387 84.8454 32.624 85.1548 32.688C85.4641 32.752 85.8001 32.8107 86.1628 32.864C86.5361 32.9067 86.9094 32.976 87.2828 33.072C87.6561 33.168 87.9921 33.3067 88.2908 33.488C88.6001 33.6587 88.8508 33.8987 89.0428 34.208C89.2348 34.5067 89.3308 34.9013 89.3308 35.392C89.3308 35.9253 89.1708 36.4 88.8508 36.816C88.5308 37.2213 88.0668 37.5413 87.4588 37.776C86.8614 38.0107 86.1308 38.128 85.2668 38.128ZM96.0308 38.128C95.1028 38.128 94.2761 37.9413 93.5508 37.568C92.8254 37.184 92.2548 36.656 91.8388 35.984C91.4334 35.312 91.2308 34.5493 91.2308 33.696C91.2308 32.832 91.4334 32.0693 91.8388 31.408C92.2548 30.736 92.8254 30.2133 93.5508 29.84C94.2761 29.456 95.1028 29.264 96.0308 29.264C96.9374 29.264 97.7268 29.456 98.3988 29.84C99.0708 30.2133 99.5668 30.752 99.8868 31.456L97.9508 32.496C97.7268 32.0907 97.4441 31.792 97.1028 31.6C96.7721 31.408 96.4094 31.312 96.0148 31.312C95.5881 31.312 95.2041 31.408 94.8628 31.6C94.5214 31.792 94.2494 32.064 94.0468 32.416C93.8548 32.768 93.7588 33.1947 93.7588 33.696C93.7588 34.1973 93.8548 34.624 94.0468 34.976C94.2494 35.328 94.5214 35.6 94.8628 35.792C95.2041 35.984 95.5881 36.08 96.0148 36.08C96.4094 36.08 96.7721 35.9893 97.1028 35.808C97.4441 35.616 97.7268 35.312 97.9508 34.896L99.8868 35.952C99.5668 36.6453 99.0708 37.184 98.3988 37.568C97.7268 37.9413 96.9374 38.128 96.0308 38.128ZM107.604 38V36.32L107.444 35.952V32.944C107.444 32.4107 107.279 31.9947 106.948 31.696C106.628 31.3973 106.132 31.248 105.46 31.248C105.001 31.248 104.548 31.3227 104.1 31.472C103.663 31.6107 103.289 31.8027 102.98 32.048L102.084 30.304C102.553 29.9733 103.119 29.7173 103.78 29.536C104.441 29.3547 105.113 29.264 105.796 29.264C107.108 29.264 108.127 29.5733 108.852 30.192C109.577 30.8107 109.94 31.776 109.94 33.088V38H107.604ZM104.98 38.128C104.308 38.128 103.732 38.016 103.252 37.792C102.772 37.5573 102.404 37.2427 102.148 36.848C101.892 36.4533 101.764 36.0107 101.764 35.52C101.764 35.008 101.887 34.56 102.132 34.176C102.388 33.792 102.788 33.4933 103.332 33.28C103.876 33.056 104.585 32.944 105.46 32.944H107.748V34.4H105.732C105.145 34.4 104.74 34.496 104.516 34.688C104.303 34.88 104.196 35.12 104.196 35.408C104.196 35.728 104.319 35.984 104.564 36.176C104.82 36.3573 105.167 36.448 105.604 36.448C106.02 36.448 106.393 36.352 106.724 36.16C107.055 35.9573 107.295 35.664 107.444 35.28L107.828 36.432C107.647 36.9867 107.316 37.408 106.836 37.696C106.356 37.984 105.737 38.128 104.98 38.128ZM113.199 38V29.392H115.583V31.824L115.247 31.12C115.503 30.512 115.914 30.0533 116.479 29.744C117.044 29.424 117.732 29.264 118.543 29.264V31.568C118.436 31.5573 118.34 31.552 118.255 31.552C118.17 31.5413 118.079 31.536 117.983 31.536C117.3 31.536 116.746 31.7333 116.319 32.128C115.903 32.512 115.695 33.1147 115.695 33.936V38H113.199ZM130.253 38.128C129.538 38.128 128.898 37.9893 128.333 37.712C127.778 37.4347 127.346 37.0133 127.037 36.448C126.727 35.872 126.573 35.1413 126.573 34.256V29.392H129.069V33.888C129.069 34.6027 129.218 35.1307 129.517 35.472C129.826 35.8027 130.258 35.968 130.813 35.968C131.197 35.968 131.538 35.888 131.837 35.728C132.135 35.5573 132.37 35.3013 132.541 34.96C132.711 34.608 132.797 34.1707 132.797 33.648V29.392H135.293V38H132.925V35.632L133.357 36.32C133.069 36.9173 132.642 37.3707 132.077 37.68C131.522 37.9787 130.914 38.128 130.253 38.128ZM149.629 29.264C150.312 29.264 150.914 29.4027 151.437 29.68C151.97 29.9467 152.386 30.3627 152.685 30.928C152.994 31.4827 153.149 32.1973 153.149 33.072V38H150.653V33.456C150.653 32.7627 150.509 32.2507 150.221 31.92C149.933 31.5893 149.528 31.424 149.005 31.424C148.642 31.424 148.317 31.5093 148.029 31.68C147.741 31.84 147.517 32.0853 147.357 32.416C147.197 32.7467 147.117 33.168 147.117 33.68V38H144.621V33.456C144.621 32.7627 144.477 32.2507 144.189 31.92C143.912 31.5893 143.512 31.424 142.989 31.424C142.626 31.424 142.301 31.5093 142.013 31.68C141.725 31.84 141.501 32.0853 141.341 32.416C141.181 32.7467 141.101 33.168 141.101 33.68V38H138.605V29.392H140.989V31.744L140.541 31.056C140.84 30.4693 141.261 30.0267 141.805 29.728C142.36 29.4187 142.989 29.264 143.693 29.264C144.482 29.264 145.17 29.4667 145.757 29.872C146.354 30.2667 146.749 30.8747 146.941 31.696L146.061 31.456C146.349 30.784 146.808 30.2507 147.437 29.856C148.077 29.4613 148.808 29.264 149.629 29.264ZM161.666 38V36.32L161.506 35.952V32.944C161.506 32.4107 161.341 31.9947 161.01 31.696C160.69 31.3973 160.194 31.248 159.522 31.248C159.064 31.248 158.61 31.3227 158.162 31.472C157.725 31.6107 157.352 31.8027 157.042 32.048L156.146 30.304C156.616 29.9733 157.181 29.7173 157.842 29.536C158.504 29.3547 159.176 29.264 159.858 29.264C161.17 29.264 162.189 29.5733 162.914 30.192C163.64 30.8107 164.002 31.776 164.002 33.088V38H161.666ZM159.042 38.128C158.37 38.128 157.794 38.016 157.314 37.792C156.834 37.5573 156.466 37.2427 156.21 36.848C155.954 36.4533 155.826 36.0107 155.826 35.52C155.826 35.008 155.949 34.56 156.194 34.176C156.45 33.792 156.85 33.4933 157.394 33.28C157.938 33.056 158.648 32.944 159.522 32.944H161.81V34.4H159.794C159.208 34.4 158.802 34.496 158.578 34.688C158.365 34.88 158.258 35.12 158.258 35.408C158.258 35.728 158.381 35.984 158.626 36.176C158.882 36.3573 159.229 36.448 159.666 36.448C160.082 36.448 160.456 36.352 160.786 36.16C161.117 35.9573 161.357 35.664 161.506 35.28L161.89 36.432C161.709 36.9867 161.378 37.408 160.898 37.696C160.418 37.984 159.8 38.128 159.042 38.128ZM178.025 29.264C178.707 29.264 179.315 29.4027 179.849 29.68C180.393 29.9467 180.819 30.3627 181.129 30.928C181.438 31.4827 181.593 32.1973 181.593 33.072V38H179.097V33.456C179.097 32.7627 178.942 32.2507 178.633 31.92C178.334 31.5893 177.907 31.424 177.353 31.424C176.958 31.424 176.601 31.5093 176.281 31.68C175.971 31.84 175.726 32.0907 175.545 32.432C175.374 32.7733 175.289 33.2107 175.289 33.744V38H172.793V26.128H175.289V31.776L174.729 31.056C175.038 30.48 175.481 30.0373 176.057 29.728C176.633 29.4187 177.289 29.264 178.025 29.264ZM189.19 38.128C188.208 38.128 187.344 37.936 186.598 37.552C185.862 37.168 185.291 36.6453 184.886 35.984C184.48 35.312 184.278 34.5493 184.278 33.696C184.278 32.832 184.475 32.0693 184.87 31.408C185.275 30.736 185.824 30.2133 186.518 29.84C187.211 29.456 187.995 29.264 188.87 29.264C189.712 29.264 190.47 29.4453 191.142 29.808C191.824 30.16 192.363 30.672 192.758 31.344C193.152 32.0053 193.35 32.8 193.35 33.728C193.35 33.824 193.344 33.936 193.334 34.064C193.323 34.1813 193.312 34.2933 193.302 34.4H186.31V32.944H191.99L191.03 33.376C191.03 32.928 190.939 32.5387 190.758 32.208C190.576 31.8773 190.326 31.6213 190.006 31.44C189.686 31.248 189.312 31.152 188.886 31.152C188.459 31.152 188.08 31.248 187.75 31.44C187.43 31.6213 187.179 31.8827 186.998 32.224C186.816 32.5547 186.726 32.9493 186.726 33.408V33.792C186.726 34.2613 186.827 34.6773 187.03 35.04C187.243 35.392 187.536 35.664 187.91 35.856C188.294 36.0373 188.742 36.128 189.254 36.128C189.712 36.128 190.112 36.0587 190.454 35.92C190.806 35.7813 191.126 35.5733 191.414 35.296L192.742 36.736C192.347 37.184 191.851 37.5307 191.254 37.776C190.656 38.0107 189.968 38.128 189.19 38.128ZM196.011 38V26.128H198.507V38H196.011ZM206.912 38.128C206.187 38.128 205.552 37.968 205.008 37.648C204.464 37.328 204.037 36.8427 203.728 36.192C203.429 35.5307 203.28 34.6987 203.28 33.696C203.28 32.6827 203.424 31.8507 203.712 31.2C204 30.5493 204.416 30.064 204.96 29.744C205.504 29.424 206.155 29.264 206.912 29.264C207.723 29.264 208.448 29.4507 209.088 29.824C209.739 30.1867 210.251 30.6987 210.624 31.36C211.008 32.0213 211.2 32.8 211.2 33.696C211.2 34.6027 211.008 35.3867 210.624 36.048C210.251 36.7093 209.739 37.2213 209.088 37.584C208.448 37.9467 207.723 38.128 206.912 38.128ZM201.824 41.104V29.392H204.208V31.152L204.16 33.712L204.32 36.256V41.104H201.824ZM206.48 36.08C206.896 36.08 207.264 35.984 207.584 35.792C207.915 35.6 208.176 35.328 208.368 34.976C208.571 34.6133 208.672 34.1867 208.672 33.696C208.672 33.1947 208.571 32.768 208.368 32.416C208.176 32.064 207.915 31.792 207.584 31.6C207.264 31.408 206.896 31.312 206.48 31.312C206.064 31.312 205.691 31.408 205.36 31.6C205.029 31.792 204.768 32.064 204.576 32.416C204.384 32.768 204.288 33.1947 204.288 33.696C204.288 34.1867 204.384 34.6133 204.576 34.976C204.768 35.328 205.029 35.6 205.36 35.792C205.691 35.984 206.064 36.08 206.48 36.08ZM214.047 34.112L213.551 26.8H216.527L216.031 34.112H214.047ZM215.039 38.128C214.591 38.128 214.223 37.984 213.935 37.696C213.647 37.408 213.503 37.0667 213.503 36.672C213.503 36.2667 213.647 35.9307 213.935 35.664C214.223 35.3867 214.591 35.248 215.039 35.248C215.497 35.248 215.865 35.3867 216.143 35.664C216.431 35.9307 216.575 36.2667 216.575 36.672C216.575 37.0667 216.431 37.408 216.143 37.696C215.865 37.984 215.497 38.128 215.039 38.128Z" fill="black" fill-opacity="0.72"/>
</g>
<defs>
<filter id="filter0_d_273_29" x="0" y="0" width="274" height="72" filterUnits="userSpaceOnUse" color-interpolation-filters="sRGB">
<feFlood flood-opacity="0" result="BackgroundImageFix"/>
<feColorMatrix in="SourceAlpha" type="matrix" values="0 0 0 0 0 0 0 0 0 0 0 0 0 0 0 0 0 0 127 0" result="hardAlpha"/>
<feOffset dy="4"/>
<feGaussianBlur stdDeviation="2"/>
<feComposite in2="hardAlpha" operator="out"/>
<feColorMatrix type="matrix" values="0 0 0 0 0 0 0 0 0 0 0 0 0 0 0 0 0 0 0.25 0"/>
<feBlend mode="normal" in2="BackgroundImageFix" result="effect1_dropShadow_273_29"/>
<feBlend mode="normal" in="SourceGraphic" in2="effect1_dropShadow_273_29" result="shape"/>
</filter>
</defs>
</svg>
